<?xml version="1.0" encoding="UTF-8"?>
<svg xmlns="http://www.w3.org/2000/svg" width="1920" height="900" viewBox="0 0 1920 900">
<rect width="1920" height="900" fill="white"/>
<text x="960" y="42" text-anchor="middle" font-family="sans-serif" font-size="26" font-weight="bold">ILUME benchmark radar scores</text>
<text x="960" y="70" text-anchor="middle" font-family="sans-serif" font-size="14">Score = best normalized MAE / model normalized MAE; higher is better. Unsupported Stage 2 partial charge = 0.</text>
<text x="330.0" y="122" text-anchor="middle" font-family="sans-serif" font-size="20" font-weight="bold">Stage 2 test</text>
<polygon points="330.00,510.00 390.00,570.00 330.00,630.00 270.00,570.00" fill="none" stroke="#c7c7c7" stroke-width="1"/>
<text x="335.00" y="514.00" font-family="sans-serif" font-size="9" fill="#666">0.25</text>
<polygon points="330.00,450.00 450.00,570.00 330.00,690.00 210.00,570.00" fill="none" stroke="#c7c7c7" stroke-width="1"/>
<text x="335.00" y="454.00" font-family="sans-serif" font-size="9" fill="#666">0.5</text>
<polygon points="330.00,390.00 510.00,570.00 330.00,750.00 150.00,570.00" fill="none" stroke="#c7c7c7" stroke-width="1"/>
<text x="335.00" y="394.00" font-family="sans-serif" font-size="9" fill="#666">0.75</text>
<polygon points="330.00,330.00 570.00,570.00 330.00,810.00 90.00,570.00" fill="none" stroke="#c7c7c7" stroke-width="1"/>
<text x="335.00" y="334.00" font-family="sans-serif" font-size="9" fill="#666">1</text>
<text x="335.00" y="574.00" font-family="sans-serif" font-size="9" fill="#666">0</text>
<line x1="330.00" y1="570.00" x2="330.00" y2="330.00" stroke="#c7c7c7" stroke-width="1"/>
<text x="330.00" y="306.00" text-anchor="middle" font-family="sans-serif" font-size="10">heat of vaporization</text>
<line x1="330.00" y1="570.00" x2="570.00" y2="570.00" stroke="#c7c7c7" stroke-width="1"/>
<text x="594.00" y="570.00" text-anchor="start" font-family="sans-serif" font-size="10">homo</text>
<line x1="330.00" y1="570.00" x2="330.00" y2="810.00" stroke="#c7c7c7" stroke-width="1"/>
<text x="330.00" y="834.00" text-anchor="middle" font-family="sans-serif" font-size="10">lumo</text>
<line x1="330.00" y1="570.00" x2="90.00" y2="570.00" stroke="#c7c7c7" stroke-width="1"/>
<text x="66.00" y="570.00" text-anchor="end" font-family="sans-serif" font-size="10">partial atomic charge</text>
<polygon class="series" data-panel="stage2_test" data-run="dmpnn@outputs/benchmarks/v1/dmpnn" data-scores="0.956824,1,1,1" points="330.00,340.36 570.00,570.00 330.00,810.00 90.00,570.00" fill="#0072b2" fill-opacity="0.12" stroke="#0072b2" stroke-width="2"/>
<line x1="90.0" y1="160" x2="108.0" y2="160" stroke="#0072b2" stroke-width="3"/>
<text x="114.0" y="164" font-family="sans-serif" font-size="12">D-MPNN</text>
<polygon class="series" data-panel="stage2_test" data-run="spmm@outputs/benchmarks/v1/spmm" data-scores="0.99731,0.998218,0.875141,0" points="330.00,330.65 569.57,570.00 330.00,780.03 330.00,570.00" fill="#d55e00" fill-opacity="0.12" stroke="#d55e00" stroke-width="2"/>
<line x1="90.0" y1="180" x2="108.0" y2="180" stroke="#d55e00" stroke-width="3"/>
<text x="114.0" y="184" font-family="sans-serif" font-size="12">SPMM</text>
<polygon class="series" data-panel="stage2_test" data-run="ilbert@outputs/benchmarks/v1/ilbert" data-scores="1,0.961306,0.777919,0" points="330.00,330.00 560.71,570.00 330.00,756.70 330.00,570.00" fill="#009e73" fill-opacity="0.12" stroke="#009e73" stroke-width="2"/>
<line x1="90.0" y1="200" x2="108.0" y2="200" stroke="#009e73" stroke-width="3"/>
<text x="114.0" y="204" font-family="sans-serif" font-size="12">ILBERT</text>
<polygon class="series" data-panel="stage2_test" data-run="mlp@outputs/benchmarks/v1/mlp" data-scores="0.920702,0.77109,0.774135,0" points="330.00,349.03 515.06,570.00 330.00,755.79 330.00,570.00" fill="#56b4e9" fill-opacity="0.12" stroke="#56b4e9" stroke-width="2"/>
<line x1="90.0" y1="220" x2="108.0" y2="220" stroke="#56b4e9" stroke-width="3"/>
<text x="114.0" y="224" font-family="sans-serif" font-size="12">MLP</text>
<polygon class="series" data-panel="stage2_test" data-run="ilume@outputs/v1/stage2/base/evaluate" data-scores="0.526423,0.784682,0.697555,0.863199" points="330.00,443.66 518.32,570.00 330.00,737.41 122.83,570.00" fill="#cc79a7" fill-opacity="0.12" stroke="#cc79a7" stroke-width="2"/>
<line x1="90.0" y1="240" x2="108.0" y2="240" stroke="#cc79a7" stroke-width="3"/>
<text x="114.0" y="244" font-family="sans-serif" font-size="12">ILUME</text>
<polygon class="series" data-panel="stage2_test" data-run="molformer@outputs/benchmarks/v1/molformer" data-scores="0.806919,0.537986,0.471542,0" points="330.00,376.34 459.12,570.00 330.00,683.17 330.00,570.00" fill="#0072b2" fill-opacity="0.12" stroke="#0072b2" stroke-width="2"/>
<line x1="90.0" y1="260" x2="108.0" y2="260" stroke="#0072b2" stroke-width="3"/>
<text x="114.0" y="264" font-family="sans-serif" font-size="12">MoLFormer-XL-both-10pct</text>
<polygon class="series" data-panel="stage2_test" data-run="ecfp_xgboost@outputs/benchmarks/v1/ecfp_xgboost" data-scores="0.342753,0.49528,0.483526,0" points="330.00,487.74 448.87,570.00 330.00,686.05 330.00,570.00" fill="#d55e00" fill-opacity="0.12" stroke="#d55e00" stroke-width="2"/>
<line x1="90.0" y1="280" x2="108.0" y2="280" stroke="#d55e00" stroke-width="3"/>
<text x="114.0" y="284" font-family="sans-serif" font-size="12">ECFP+XGBoost</text>
<text x="960.0" y="122" text-anchor="middle" font-family="sans-serif" font-size="20" font-weight="bold">Stage 3 test</text>
<polygon points="960.00,510.00 992.44,519.52 1014.58,545.08 1019.39,578.54 1005.34,609.29 976.90,627.57 943.10,627.57 914.66,609.29 900.61,578.54 905.42,545.08 927.56,519.52" fill="none" stroke="#c7c7c7" stroke-width="1"/>
<text x="965.00" y="514.00" font-family="sans-serif" font-size="9" fill="#666">0.25</text>
<polygon points="960.00,450.00 1024.88,469.05 1069.16,520.15 1078.78,587.08 1050.69,648.58 993.81,685.14 926.19,685.14 869.31,648.58 841.22,587.08 850.84,520.15 895.12,469.05" fill="none" stroke="#c7c7c7" stroke-width="1"/>
<text x="965.00" y="454.00" font-family="sans-serif" font-size="9" fill="#666">0.5</text>
<polygon points="960.00,390.00 1057.32,418.57 1123.73,495.23 1138.17,595.62 1096.03,687.87 1010.71,742.71 909.29,742.71 823.97,687.87 781.83,595.62 796.27,495.23 862.68,418.57" fill="none" stroke="#c7c7c7" stroke-width="1"/>
<text x="965.00" y="394.00" font-family="sans-serif" font-size="9" fill="#666">0.75</text>
<polygon points="960.00,330.00 1089.75,368.10 1178.31,470.30 1197.56,604.16 1141.38,727.17 1027.62,800.28 892.38,800.28 778.62,727.17 722.44,604.16 741.69,470.30 830.25,368.10" fill="none" stroke="#c7c7c7" stroke-width="1"/>
<text x="965.00" y="334.00" font-family="sans-serif" font-size="9" fill="#666">1</text>
<text x="965.00" y="574.00" font-family="sans-serif" font-size="9" fill="#666">0</text>
<line x1="960.00" y1="570.00" x2="960.00" y2="330.00" stroke="#c7c7c7" stroke-width="1"/>
<text x="960.00" y="306.00" text-anchor="middle" font-family="sans-serif" font-size="10">density</text>
<line x1="960.00" y1="570.00" x2="1089.75" y2="368.10" stroke="#c7c7c7" stroke-width="1"/>
<text x="1102.73" y="347.91" text-anchor="start" font-family="sans-serif" font-size="10">electrical conductivity</text>
<line x1="960.00" y1="570.00" x2="1178.31" y2="470.30" stroke="#c7c7c7" stroke-width="1"/>
<text x="1200.14" y="460.33" text-anchor="start" font-family="sans-serif" font-size="10">glass transition temperature</text>
<line x1="960.00" y1="570.00" x2="1197.56" y2="604.16" stroke="#c7c7c7" stroke-width="1"/>
<text x="1221.31" y="607.57" text-anchor="start" font-family="sans-serif" font-size="10">melting point</text>
<line x1="960.00" y1="570.00" x2="1141.38" y2="727.17" stroke="#c7c7c7" stroke-width="1"/>
<text x="1159.52" y="742.88" text-anchor="start" font-family="sans-serif" font-size="10">refractive index</text>
<line x1="960.00" y1="570.00" x2="1027.62" y2="800.28" stroke="#c7c7c7" stroke-width="1"/>
<text x="1034.38" y="823.31" text-anchor="start" font-family="sans-serif" font-size="10">solvation</text>
<line x1="960.00" y1="570.00" x2="892.38" y2="800.28" stroke="#c7c7c7" stroke-width="1"/>
<text x="885.62" y="823.31" text-anchor="end" font-family="sans-serif" font-size="10">surface tension</text>
<line x1="960.00" y1="570.00" x2="778.62" y2="727.17" stroke="#c7c7c7" stroke-width="1"/>
<text x="760.48" y="742.88" text-anchor="end" font-family="sans-serif" font-size="10">thermal decomposition temperature</text>
<line x1="960.00" y1="570.00" x2="722.44" y2="604.16" stroke="#c7c7c7" stroke-width="1"/>
<text x="698.69" y="607.57" text-anchor="end" font-family="sans-serif" font-size="10">transfer</text>
<line x1="960.00" y1="570.00" x2="741.69" y2="470.30" stroke="#c7c7c7" stroke-width="1"/>
<text x="719.86" y="460.33" text-anchor="end" font-family="sans-serif" font-size="10">transfer organic</text>
<line x1="960.00" y1="570.00" x2="830.25" y2="368.10" stroke="#c7c7c7" stroke-width="1"/>
<text x="817.27" y="347.91" text-anchor="end" font-family="sans-serif" font-size="10">viscosity</text>
<polygon class="series" data-panel="stage3_test" data-run="ilume@outputs/v1/stage3/base/test" data-scores="0.958393,1,1,0.901385,1,1,1,0.947019,1,1,1" points="960.00,339.99 1089.75,368.10 1178.31,470.30 1174.13,600.79 1141.38,727.17 1027.62,800.28 892.38,800.28 788.23,718.84 722.44,604.16 741.69,470.30 830.25,368.10" fill="#cc79a7" fill-opacity="0.12" stroke="#cc79a7" stroke-width="2"/>
<line x1="720.0" y1="160" x2="738.0" y2="160" stroke="#cc79a7" stroke-width="3"/>
<text x="744.0" y="164" font-family="sans-serif" font-size="12">ILUME</text>
<polygon class="series" data-panel="stage3_test" data-run="mlp@outputs/benchmarks/v1/mlp" data-scores="0.862004,0.94381,0.914143,1,0.916843,0.598041,0.853107,1,0.539519,0.870647,0.945819" points="960.00,363.12 1082.46,379.44 1159.57,478.86 1197.56,604.16 1126.30,714.10 1000.44,707.72 902.32,766.45 778.62,727.17 831.83,588.43 769.93,483.20 837.28,379.04" fill="#56b4e9" fill-opacity="0.12" stroke="#56b4e9" stroke-width="2"/>
<line x1="720.0" y1="180" x2="738.0" y2="180" stroke="#56b4e9" stroke-width="3"/>
<text x="744.0" y="184" font-family="sans-serif" font-size="12">MLP</text>
<polygon class="series" data-panel="stage3_test" data-run="ilume_stage3_single_task_mlp@outputs/benchmarks/v1/ilume_stage3_single_task_mlp" data-scores="1,0.87814,0.83623,0.962804,0.727681,0.717579,0.780766,0.762323,0.4478,0.812043,0.976377" points="960.00,330.00 1073.94,392.70 1142.56,486.63 1188.72,602.89 1091.99,684.37 1008.52,735.24 907.21,749.79 821.73,689.81 853.62,585.29 782.72,489.04 833.31,372.87" fill="#e69f00" fill-opacity="0.12" stroke="#e69f00" stroke-width="2"/>
<line x1="720.0" y1="200" x2="738.0" y2="200" stroke="#e69f00" stroke-width="3"/>
<text x="744.0" y="204" font-family="sans-serif" font-size="12">ILUME Stage3 Single-task MLP</text>
<polygon class="series" data-panel="stage3_test" data-run="spmm@outputs/benchmarks/v1/spmm" data-scores="0.827988,0.738291,0.87871,0.966751,0.580416,0.738311,0.84042,0.846539,0.552934,0.809664,0.89822" points="960.00,371.28 1055.80,420.94 1151.83,482.39 1189.66,603.02 1065.28,661.22 1009.92,740.02 903.17,763.53 806.45,703.05 828.65,588.89 783.24,489.28 843.45,388.65" fill="#d55e00" fill-opacity="0.12" stroke="#d55e00" stroke-width="2"/>
<line x1="720.0" y1="220" x2="738.0" y2="220" stroke="#d55e00" stroke-width="3"/>
<text x="744.0" y="224" font-family="sans-serif" font-size="12">SPMM</text>
<polygon class="series" data-panel="stage3_test" data-run="dmpnn@outputs/benchmarks/v1/dmpnn" data-scores="0.87798,0.82668,0.657776,0.920491,0.560354,0.555743,0.725643,0.841327,0.395984,0.467131,0.966994" points="960.00,359.28 1067.26,403.09 1103.60,504.42 1178.67,601.44 1061.64,658.07 997.58,697.98 910.94,737.10 807.40,702.23 865.93,583.53 858.02,523.43 834.53,374.76" fill="#0072b2" fill-opacity="0.12" stroke="#0072b2" stroke-width="2"/>
<line x1="720.0" y1="240" x2="738.0" y2="240" stroke="#0072b2" stroke-width="3"/>
<text x="744.0" y="244" font-family="sans-serif" font-size="12">D-MPNN</text>
<polygon class="series" data-panel="stage3_test" data-run="ecfp_xgboost@outputs/benchmarks/v1/ecfp_xgboost" data-scores="0.532079,0.691517,0.667808,0.896236,0.454073,0.287445,0.739444,0.880969,0.371397,0.475997,0.783078" points="960.00,442.30 1049.73,430.38 1105.79,503.42 1172.91,600.61 1042.36,641.37 979.44,636.19 910.00,740.28 800.21,708.46 871.77,582.69 856.08,522.54 858.39,411.90" fill="#d55e00" fill-opacity="0.12" stroke="#d55e00" stroke-width="2"/>
<line x1="720.0" y1="260" x2="738.0" y2="260" stroke="#d55e00" stroke-width="3"/>
<text x="744.0" y="264" font-family="sans-serif" font-size="12">ECFP+XGBoost</text>
<polygon class="series" data-panel="stage3_test" data-run="ilbert@outputs/benchmarks/v1/ilbert" data-scores="0.177493,0.591509,0.933923,0.943484,0.677147,0.943083,0.814045,0.943435,0.866825,0.908306,0.426328" points="960.00,527.40 1036.75,450.57 1163.89,476.89 1184.13,602.23 1082.82,676.42 1023.77,787.17 904.96,757.46 788.88,718.28 754.08,599.61 761.71,479.44 904.68,483.92" fill="#009e73" fill-opacity="0.12" stroke="#009e73" stroke-width="2"/>
<line x1="720.0" y1="280" x2="738.0" y2="280" stroke="#009e73" stroke-width="3"/>
<text x="744.0" y="284" font-family="sans-serif" font-size="12">ILBERT</text>
<polygon class="series" data-panel="stage3_test" data-run="molformer@outputs/benchmarks/v1/molformer" data-scores="0.772533,0.704947,0.559693,0.885276,0.540489,0.552115,0.730913,0.68437,0.330303,0.378393,0.982415" points="960.00,384.59 1051.47,427.67 1082.19,514.20 1170.30,600.24 1058.03,654.95 997.33,697.14 910.58,738.31 835.87,677.56 881.53,581.28 877.39,532.27 832.53,371.65" fill="#0072b2" fill-opacity="0.12" stroke="#0072b2" stroke-width="2"/>
<line x1="720.0" y1="300" x2="738.0" y2="300" stroke="#0072b2" stroke-width="3"/>
<text x="744.0" y="304" font-family="sans-serif" font-size="12">MoLFormer-XL-both-10pct</text>
<text x="1590.0" y="122" text-anchor="middle" font-family="sans-serif" font-size="20" font-weight="bold">Stage 3 validation</text>
<polygon points="1590.00,510.00 1607.69,512.67 1623.80,520.43 1636.91,532.59 1645.85,548.08 1649.83,565.52 1648.50,583.35 1641.96,600.00 1630.81,613.98 1616.03,624.06 1598.94,629.33 1581.06,629.33 1563.97,624.06 1549.19,613.98 1538.04,600.00 1531.50,583.35 1530.17,565.52 1534.15,548.08 1543.09,532.59 1556.20,520.43 1572.31,512.67" fill="none" stroke="#c7c7c7" stroke-width="1"/>
<text x="1595.00" y="514.00" font-family="sans-serif" font-size="9" fill="#666">0.25</text>
<polygon points="1590.00,450.00 1625.37,455.33 1657.60,470.85 1683.82,495.18 1701.70,526.16 1709.66,561.03 1706.99,596.70 1693.92,630.00 1671.62,657.97 1642.07,678.12 1607.89,688.66 1572.11,688.66 1537.93,678.12 1508.38,657.97 1486.08,630.00 1473.01,596.70 1470.34,561.03 1478.30,526.16 1496.18,495.18 1522.40,470.85 1554.63,455.33" fill="none" stroke="#c7c7c7" stroke-width="1"/>
<text x="1595.00" y="454.00" font-family="sans-serif" font-size="9" fill="#666">0.5</text>
<polygon points="1590.00,390.00 1643.06,398.00 1691.40,421.28 1730.73,457.77 1757.56,504.24 1769.50,556.55 1765.49,610.05 1745.88,660.00 1712.43,701.95 1668.10,732.17 1616.83,747.99 1563.17,747.99 1511.90,732.17 1467.57,701.95 1434.12,660.00 1414.51,610.05 1410.50,556.55 1422.44,504.24 1449.27,457.77 1488.60,421.28 1536.94,398.00" fill="none" stroke="#c7c7c7" stroke-width="1"/>
<text x="1595.00" y="394.00" font-family="sans-serif" font-size="9" fill="#666">0.75</text>
<polygon points="1590.00,330.00 1660.74,340.66 1725.20,371.70 1777.64,420.36 1813.41,482.32 1829.33,552.06 1823.98,623.41 1797.85,690.00 1753.24,745.93 1694.13,786.23 1625.77,807.32 1554.23,807.32 1485.87,786.23 1426.76,745.93 1382.15,690.00 1356.02,623.41 1350.67,552.06 1366.59,482.32 1402.36,420.36 1454.80,371.70 1519.26,340.66" fill="none" stroke="#c7c7c7" stroke-width="1"/>
<text x="1595.00" y="334.00" font-family="sans-serif" font-size="9" fill="#666">1</text>
<text x="1595.00" y="574.00" font-family="sans-serif" font-size="9" fill="#666">0</text>
<line x1="1590.00" y1="570.00" x2="1590.00" y2="330.00" stroke="#c7c7c7" stroke-width="1"/>
<text x="1590.00" y="306.00" text-anchor="middle" font-family="sans-serif" font-size="10">density</text>
<line x1="1590.00" y1="570.00" x2="1660.74" y2="340.66" stroke="#c7c7c7" stroke-width="1"/>
<text x="1667.82" y="317.73" text-anchor="start" font-family="sans-serif" font-size="10">dynamic relative permittivity</text>
<line x1="1590.00" y1="570.00" x2="1725.20" y2="371.70" stroke="#c7c7c7" stroke-width="1"/>
<text x="1738.72" y="351.87" text-anchor="start" font-family="sans-serif" font-size="10">electrical conductivity</text>
<line x1="1590.00" y1="570.00" x2="1777.64" y2="420.36" stroke="#c7c7c7" stroke-width="1"/>
<text x="1796.40" y="405.40" text-anchor="start" font-family="sans-serif" font-size="10">equilibrium pressure</text>
<line x1="1590.00" y1="570.00" x2="1813.41" y2="482.32" stroke="#c7c7c7" stroke-width="1"/>
<text x="1835.75" y="473.55" text-anchor="start" font-family="sans-serif" font-size="10">glass transition temperature</text>
<line x1="1590.00" y1="570.00" x2="1829.33" y2="552.06" stroke="#c7c7c7" stroke-width="1"/>
<text x="1853.26" y="550.27" text-anchor="start" font-family="sans-serif" font-size="10">heat capacity</text>
<line x1="1590.00" y1="570.00" x2="1823.98" y2="623.41" stroke="#c7c7c7" stroke-width="1"/>
<text x="1847.38" y="628.75" text-anchor="start" font-family="sans-serif" font-size="10">isobaric coefficient of volume expansion</text>
<line x1="1590.00" y1="570.00" x2="1797.85" y2="690.00" stroke="#c7c7c7" stroke-width="1"/>
<text x="1818.63" y="702.00" text-anchor="start" font-family="sans-serif" font-size="10">melting point</text>
<line x1="1590.00" y1="570.00" x2="1753.24" y2="745.93" stroke="#c7c7c7" stroke-width="1"/>
<text x="1769.57" y="763.53" text-anchor="start" font-family="sans-serif" font-size="10">pec50</text>
<line x1="1590.00" y1="570.00" x2="1694.13" y2="786.23" stroke="#c7c7c7" stroke-width="1"/>
<text x="1704.55" y="807.86" text-anchor="start" font-family="sans-serif" font-size="10">refractive index</text>
<line x1="1590.00" y1="570.00" x2="1625.77" y2="807.32" stroke="#c7c7c7" stroke-width="1"/>
<text x="1629.35" y="831.05" text-anchor="middle" font-family="sans-serif" font-size="10">self diffusion coefficient</text>
<line x1="1590.00" y1="570.00" x2="1554.23" y2="807.32" stroke="#c7c7c7" stroke-width="1"/>
<text x="1550.65" y="831.05" text-anchor="middle" font-family="sans-serif" font-size="10">solvation</text>
<line x1="1590.00" y1="570.00" x2="1485.87" y2="786.23" stroke="#c7c7c7" stroke-width="1"/>
<text x="1475.45" y="807.86" text-anchor="end" font-family="sans-serif" font-size="10">speed of sound</text>
<line x1="1590.00" y1="570.00" x2="1426.76" y2="745.93" stroke="#c7c7c7" stroke-width="1"/>
<text x="1410.43" y="763.53" text-anchor="end" font-family="sans-serif" font-size="10">static relative permittivity</text>
<line x1="1590.00" y1="570.00" x2="1382.15" y2="690.00" stroke="#c7c7c7" stroke-width="1"/>
<text x="1361.37" y="702.00" text-anchor="end" font-family="sans-serif" font-size="10">surface tension</text>
<line x1="1590.00" y1="570.00" x2="1356.02" y2="623.41" stroke="#c7c7c7" stroke-width="1"/>
<text x="1332.62" y="628.75" text-anchor="end" font-family="sans-serif" font-size="10">thermal conductivity</text>
<line x1="1590.00" y1="570.00" x2="1350.67" y2="552.06" stroke="#c7c7c7" stroke-width="1"/>
<text x="1326.74" y="550.27" text-anchor="end" font-family="sans-serif" font-size="10">thermal decomposition temperature</text>
<line x1="1590.00" y1="570.00" x2="1366.59" y2="482.32" stroke="#c7c7c7" stroke-width="1"/>
<text x="1344.25" y="473.55" text-anchor="end" font-family="sans-serif" font-size="10">transfer</text>
<line x1="1590.00" y1="570.00" x2="1402.36" y2="420.36" stroke="#c7c7c7" stroke-width="1"/>
<text x="1383.60" y="405.40" text-anchor="end" font-family="sans-serif" font-size="10">transfer organic</text>
<line x1="1590.00" y1="570.00" x2="1454.80" y2="371.70" stroke="#c7c7c7" stroke-width="1"/>
<text x="1441.28" y="351.87" text-anchor="end" font-family="sans-serif" font-size="10">viscosity</text>
<line x1="1590.00" y1="570.00" x2="1519.26" y2="340.66" stroke="#c7c7c7" stroke-width="1"/>
<text x="1512.18" y="317.73" text-anchor="end" font-family="sans-serif" font-size="10">x co2</text>
<polygon class="series" data-panel="stage3_validation" data-run="ilume@study:ilume-stage3-6e0b193154d4b81545dc1bac0bb187e872a34548b7cee0723f681a7c5105f31d-taskwise-refined" data-scores="0.890952,0.872341,1,0.926856,0.985543,0.903393,1,0.933011,0.858857,1,1,1,0.952053,0.628896,1,0.862708,0.933843,1,1,1,1" points="1590.00,356.17 1651.71,369.94 1725.20,371.70 1763.91,431.31 1810.18,483.59 1806.21,553.80 1823.98,623.41 1783.92,681.96 1730.20,721.10 1694.13,786.23 1625.77,807.32 1554.23,807.32 1490.86,775.86 1487.34,680.64 1382.15,690.00 1388.14,616.07 1366.50,553.25 1366.59,482.32 1402.36,420.36 1454.80,371.70 1519.26,340.66" fill="#cc79a7" fill-opacity="0.12" stroke="#cc79a7" stroke-width="2"/>
<line x1="1350.0" y1="160" x2="1368.0" y2="160" stroke="#cc79a7" stroke-width="3"/>
<text x="1374.0" y="164" font-family="sans-serif" font-size="12">ILUME</text>
<polygon class="series" data-panel="stage3_validation" data-run="mlp@outputs/benchmarks/v1/mlp" data-scores="0.866435,0.947494,0.918706,0.854354,1,0.951231,0.618145,0.970481,0.872084,0.933924,0.862821,0.812717,0.935528,0.953903,0.964822,0.985744,0.991157,0.679511,0.855966,0.966434,0.758141" points="1590.00,362.06 1657.03,352.70 1714.21,387.82 1750.31,442.16 1813.41,482.32 1817.66,552.94 1734.64,603.01 1791.71,686.46 1732.36,723.43 1687.25,771.94 1620.86,774.76 1560.93,762.87 1492.58,772.29 1434.28,737.82 1389.47,685.78 1359.35,622.64 1352.79,552.22 1438.19,510.42 1429.39,441.92 1459.34,378.36 1536.37,396.13" fill="#56b4e9" fill-opacity="0.12" stroke="#56b4e9" stroke-width="2"/>
<line x1="1350.0" y1="180" x2="1368.0" y2="180" stroke="#56b4e9" stroke-width="3"/>
<text x="1374.0" y="184" font-family="sans-serif" font-size="12">MLP</text>
<polygon class="series" data-panel="stage3_validation" data-run="ilume_stage3_single_task_mlp@outputs/benchmarks/v1/ilume_stage3_single_task_mlp" data-scores="1,0.928051,0.900212,1,0.915375,1,0.808239,0.878401,0.825981,0.931526,0.806437,0.936991,0.971657,0.808008,0.923561,0.949155,0.816654,0.707846,0.874165,0.987535,0.886891" points="1590.00,330.00 1655.65,357.16 1711.71,391.49 1777.64,420.36 1794.50,489.74 1829.33,552.06 1779.11,613.16 1772.57,675.41 1724.83,715.32 1687.00,771.43 1618.85,761.38 1556.48,792.37 1488.82,780.10 1458.10,712.15 1398.04,680.83 1367.91,620.69 1394.55,555.35 1431.86,507.93 1425.97,439.19 1456.49,374.17 1527.26,366.60" fill="#e69f00" fill-opacity="0.12" stroke="#e69f00" stroke-width="2"/>
<line x1="1350.0" y1="200" x2="1368.0" y2="200" stroke="#e69f00" stroke-width="3"/>
<text x="1374.0" y="204" font-family="sans-serif" font-size="12">ILUME Stage3 Single-task MLP</text>
<polygon class="series" data-panel="stage3_validation" data-run="dmpnn@outputs/benchmarks/v1/dmpnn" data-scores="0.838336,0.913772,0.778757,0.741203,0.813274,0.918149,0.962289,0.87011,0.692744,0.731471,0.678191,0.89255,1,0.544597,0.840575,0.847926,0.841619,0.735392,0.572371,0.914598,0.930034" points="1590.00,368.80 1654.64,360.44 1695.29,415.57 1729.08,459.09 1771.69,498.69 1809.74,553.53 1815.16,621.39 1770.85,674.41 1703.08,691.88 1666.17,728.17 1614.26,730.95 1558.07,781.82 1485.87,786.23 1501.10,665.81 1415.29,670.87 1391.60,615.28 1388.58,554.91 1425.71,505.52 1482.60,484.35 1466.35,388.64 1524.21,356.71" fill="#0072b2" fill-opacity="0.12" stroke="#0072b2" stroke-width="2"/>
<line x1="1350.0" y1="220" x2="1368.0" y2="220" stroke="#0072b2" stroke-width="3"/>
<text x="1374.0" y="224" font-family="sans-serif" font-size="12">D-MPNN</text>
<polygon class="series" data-panel="stage3_validation" data-run="ilbert@outputs/benchmarks/v1/ilbert" data-scores="0.119672,1,0.370191,0.99378,0.983598,0.585972,0.677345,1,1,0.964039,0.927765,0.918314,0.743412,0.853187,0.924085,0.878586,1,0.916971,0.870713,0.291755,0.791703" points="1590.00,541.28 1660.74,340.66 1640.05,496.59 1776.47,421.29 1809.75,483.76 1730.24,559.49 1748.49,606.17 1797.85,690.00 1753.24,745.93 1690.39,778.46 1623.19,790.18 1557.15,787.93 1512.59,730.75 1450.72,720.10 1397.93,680.89 1384.43,616.92 1350.67,552.06 1385.14,489.60 1426.62,439.71 1550.56,512.15 1533.99,388.43" fill="#009e73" fill-opacity="0.12" stroke="#009e73" stroke-width="2"/>
<line x1="1350.0" y1="240" x2="1368.0" y2="240" stroke="#009e73" stroke-width="3"/>
<text x="1374.0" y="244" font-family="sans-serif" font-size="12">ILBERT</text>
<polygon class="series" data-panel="stage3_validation" data-run="spmm@outputs/benchmarks/v1/spmm" data-scores="0.833778,0.813078,0.469294,0.41425,0.901459,0.845125,0.424194,0.889488,0.883633,0.770835,0.399931,0.909485,0.81978,1,0.830152,1,0.880416,0.779689,0.761529,0.708284,0.251993" points="1590.00,369.89 1647.52,383.53 1653.45,476.94 1667.73,508.01 1791.39,490.96 1792.26,554.84 1689.25,592.65 1774.88,676.74 1734.25,725.46 1670.27,736.68 1604.31,664.91 1557.47,785.84 1504.63,747.26 1426.76,745.93 1417.46,669.62 1356.02,623.41 1379.29,554.21 1415.81,501.64 1447.11,456.05 1494.24,429.55 1572.17,512.21" fill="#d55e00" fill-opacity="0.12" stroke="#d55e00" stroke-width="2"/>
<line x1="1350.0" y1="260" x2="1368.0" y2="260" stroke="#d55e00" stroke-width="3"/>
<text x="1374.0" y="264" font-family="sans-serif" font-size="12">SPMM</text>
<polygon class="series" data-panel="stage3_validation" data-run="ecfp_xgboost@outputs/benchmarks/v1/ecfp_xgboost" data-scores="0.395747,0.622061,0.704894,0.729018,0.864042,0.439763,0.285232,0.902058,0.65084,0.709031,0.781694,0.55731,0.558114,0.843487,0.704962,0.690061,0.893792,0.567408,0.54792,0.681048,0.900673" points="1590.00,475.02 1634.01,427.34 1685.30,430.22 1726.79,460.91 1783.04,494.24 1695.25,562.11 1656.74,585.23 1777.49,678.25 1696.24,684.50 1663.83,723.32 1617.96,755.51 1570.06,702.26 1531.88,690.68 1452.31,718.40 1443.48,654.60 1428.54,606.85 1376.09,553.97 1463.24,520.25 1487.19,488.01 1497.92,434.95 1526.29,363.44" fill="#d55e00" fill-opacity="0.12" stroke="#d55e00" stroke-width="2"/>
<line x1="1350.0" y1="280" x2="1368.0" y2="280" stroke="#d55e00" stroke-width="3"/>
<text x="1374.0" y="284" font-family="sans-serif" font-size="12">ECFP+XGBoost</text>
<polygon class="series" data-panel="stage3_validation" data-run="molformer@outputs/benchmarks/v1/molformer" data-scores="0.736791,0.848058,0.632131,0.487872,0.789318,0.772239,0.501244,0.817366,0.639029,0.59171,0.407309,0.828803,0.637004,0.675611,0.771771,0.651897,0.708346,0.529032,0.378395,0.78859,0.551948" points="1590.00,393.17 1649.99,375.51 1675.46,444.65 1681.54,497.00 1766.34,500.79 1774.82,556.15 1707.28,596.77 1759.89,668.08 1694.32,682.43 1651.62,697.95 1604.57,666.66 1560.35,766.69 1523.67,707.74 1479.71,688.86 1429.59,662.61 1437.47,604.81 1420.47,557.30 1471.81,523.61 1519.00,513.38 1483.39,413.62 1550.95,443.42" fill="#0072b2" fill-opacity="0.12" stroke="#0072b2" stroke-width="2"/>
<line x1="1350.0" y1="300" x2="1368.0" y2="300" stroke="#0072b2" stroke-width="3"/>
<text x="1374.0" y="304" font-family="sans-serif" font-size="12">MoLFormer-XL-both-10pct</text>
</svg>
